ffmpeg version 4.4.2-0ubuntu0.22.04.1 Copyright (c) 2000-2021 the FFmpeg developers
  built with gcc 11 (Ubuntu 11.2.0-19ubuntu1)
  configuration: --prefix=/usr --extra-version=0ubuntu0.22.04.1 --toolchain=hardened --libdir=/usr/lib/x86_64-linux-gnu --incdir=/usr/include/x86_64-linux-gnu --arch=amd64 --enable-gpl --disable-stripping --enable-gnutls --enable-ladspa --enable-libaom --enable-libass --enable-libbluray --enable-libbs2b --enable-libcaca --enable-libcdio --enable-libcodec2 --enable-libdav1d --enable-libflite --enable-libfontconfig --enable-libfreetype --enable-libfribidi --enable-libgme --enable-libgsm --enable-libjack --enable-libmp3lame --enable-libmysofa --enable-libopenjpeg --enable-libopenmpt --enable-libopus --enable-libpulse --enable-librabbitmq --enable-librubberband --enable-libshine --enable-libsnappy --enable-libsoxr --enable-libspeex --enable-libsrt --enable-libssh --enable-libtheora --enable-libtwolame --enable-libvidstab --enable-libvorbis --enable-libvpx --enable-libwebp --enable-libx265 --enable-libxml2 --enable-libxvid --enable-libzimg --enable-libzmq --enable-libzvbi --enable-lv2 --enable-omx --enable-openal --enable-opencl --enable-opengl --enable-sdl2 --enable-pocketsphinx --enable-librsvg --enable-libmfx --enable-libdc1394 --enable-libdrm --enable-libiec61883 --enable-chromaprint --enable-frei0r --enable-libx264 --enable-shared
  libavutil      56. 70.100 / 56. 70.100
  libavcodec     58.134.100 / 58.134.100
  libavformat    58. 76.100 / 58. 76.100
  libavdevice    58. 13.100 / 58. 13.100
  libavfilter     7.110.100 /  7.110.100
  libswscale      5.  9.100 /  5.  9.100
  libswresample   3.  9.100 /  3.  9.100
  libpostproc    55.  9.100 / 55.  9.100
Input #0, image2, from '/tmp/jl_vjIWbl/proc1_%04d.png':
  Duration: 00:00:04.52, start: 0.000000, bitrate: N/A
  Stream #0:0: Video: png, rgb24(pc), 1200x600, 25 fps, 25 tbr, 25 tbn, 25 tbc
Stream mapping:
  Stream #0:0 -> #0:0 (png (native) -> h264 (libx264))
Press [q] to stop, [?] for help
[libx264 @ 0x55eed4d03700] using cpu capabilities: MMX2 SSE2Fast SSSE3 SSE4.2 AVX FMA3 BMI2 AVX2
[libx264 @ 0x55eed4d03700] profile High, level 3.1, 4:2:0, 8-bit
[libx264 @ 0x55eed4d03700] 264 - core 163 r3060 5db6aa6 - H.264/MPEG-4 AVC codec - Copyleft 2003-2021 - http://www.videolan.org/x264.html - options: cabac=1 ref=3 deblock=1:0:0 analyse=0x3:0x113 me=hex subme=7 psy=1 psy_rd=1.00:0.00 mixed_ref=1 me_range=16 chroma_me=1 trellis=1 8x8dct=1 cqm=0 deadzone=21,11 fast_pskip=1 chroma_qp_offset=-2 threads=6 lookahead_threads=1 sliced_threads=0 nr=0 decimate=1 interlaced=0 bluray_compat=0 constrained_intra=0 bframes=3 b_pyramid=2 b_adapt=1 b_bias=0 direct=1 weightb=1 open_gop=0 weightp=2 keyint=250 keyint_min=25 scenecut=40 intra_refresh=0 rc_lookahead=40 rc=crf mbtree=1 crf=23.0 qcomp=0.60 qpmin=0 qpmax=69 qpstep=4 ip_ratio=1.40 aq=1:1.00
Output #0, mp4, to 'vorticity_proc1.mp4':
  Metadata:
    encoder         : Lavf58.76.100
  Stream #0:0: Video: h264 (avc1 / 0x31637661), yuv420p(tv, progressive), 1200x600, q=2-31, 25 fps, 12800 tbn
    Metadata:
      encoder         : Lavc58.134.100 libx264
    Side data:
      cpb: bitrate max/min/avg: 0/0/0 buffer size: 0 vbv_delay: N/A
frame=    3 fps=0.0 q=0.0 size=       0kB time=00:00:00.00 bitrate=N/A speed=   0x    frame=   70 fps=0.0 q=28.0 size=       0kB time=00:00:00.68 bitrate=   0.6kbits/s speed=1.21x    frame=  108 fps= 98 q=28.0 size=       0kB time=00:00:02.20 bitrate=   0.2kbits/s speed=   2x    frame=  145 fps= 90 q=28.0 size=     256kB time=00:00:03.68 bitrate= 570.0kbits/s speed=2.27x    frame=  185 fps= 87 q=28.0 size=     256kB time=00:00:05.28 bitrate= 397.3kbits/s speed=2.49x    frame=  225 fps= 85 q=28.0 size=     256kB time=00:00:06.88 bitrate= 304.9kbits/s speed=2.61x    frame=  260 fps= 82 q=28.0 size=     512kB time=00:00:08.28 bitrate= 506.6kbits/s speed=2.61x    frame=  283 fps= 74 q=-1.0 Lsize=     821kB time=00:00:11.20 bitrate= 600.9kbits/s speed=2.95x    
video:817kB audio:0kB subtitle:0kB other streams:0kB global headers:0kB muxing overhead: 0.506232%
[libx264 @ 0x55eed4d03700] frame I:2     Avg QP:16.56  size: 37727
[libx264 @ 0x55eed4d03700] frame P:74    Avg QP:25.32  size:  8153
[libx264 @ 0x55eed4d03700] frame B:207   Avg QP:18.80  size:   761
[libx264 @ 0x55eed4d03700] consecutive B-frames:  0.7%  4.2%  3.2% 91.9%
[libx264 @ 0x55eed4d03700] mb I  I16..4: 32.8% 41.2% 26.0%
[libx264 @ 0x55eed4d03700] mb P  I16..4:  0.3%  1.5%  0.9%  P16..4:  5.7%  6.7%  4.5%  0.0%  0.0%    skip:80.4%
[libx264 @ 0x55eed4d03700] mb B  I16..4:  0.1%  0.1%  0.0%  B16..8:  6.6%  0.9%  0.4%  direct: 0.3%  skip:91.7%  L0:44.2% L1:47.5% BI: 8.2%
[libx264 @ 0x55eed4d03700] 8x8 transform intra:47.5% inter:37.5%
[libx264 @ 0x55eed4d03700] coded y,uvDC,uvAC intra: 40.9% 43.5% 35.3% inter: 2.7% 2.2% 0.7%
[libx264 @ 0x55eed4d03700] i16 v,h,dc,p: 69% 20%  9%  3%
[libx264 @ 0x55eed4d03700] i8 v,h,dc,ddl,ddr,vr,hd,vl,hu: 28% 11% 30%  5%  5%  4%  6%  4%  7%
[libx264 @ 0x55eed4d03700] i4 v,h,dc,ddl,ddr,vr,hd,vl,hu: 29% 18% 17%  5%  6%  6%  9%  4%  7%
[libx264 @ 0x55eed4d03700] i8c dc,h,v,p: 67% 15% 13%  5%
[libx264 @ 0x55eed4d03700] Weighted P-Frames: Y:0.0% UV:0.0%
[libx264 @ 0x55eed4d03700] ref P L0: 69.5% 15.3% 10.0%  5.1%
[libx264 @ 0x55eed4d03700] ref B L0: 87.1% 10.1%  2.8%
[libx264 @ 0x55eed4d03700] ref B L1: 98.4%  1.6%
[libx264 @ 0x55eed4d03700] kb/s:591.01
